<svg width="117" height="18" viewBox="0 0 117 18" fill="none" xmlns="http://www.w3.org/2000/svg">
<path d="M0.292893 8.29289C-0.0976311 8.68342 -0.0976311 9.31658 0.292893 9.70711L6.65685 16.0711C7.04738 16.4616 7.68054 16.4616 8.07107 16.0711C8.46159 15.6805 8.46159 15.0474 8.07107 14.6569L2.41421 9L8.07107 3.34315C8.46159 2.95262 8.46159 2.31946 8.07107 1.92893C7.68054 1.53841 7.04738 1.53841 6.65685 1.92893L0.292893 8.29289ZM35 10C35.5523 10 36 9.55228 36 9C36 8.44772 35.5523 8 35 8V10ZM1 10L35 10V8L1 8L1 10Z" fill="black"/>
<path d="M45.448 10.832V14H43.864V5.6H47.152C47.584 5.6 47.96 5.672 48.28 5.816C48.6 5.952 48.864 6.136 49.072 6.368C49.288 6.592 49.448 6.852 49.552 7.148C49.664 7.436 49.72 7.732 49.72 8.036V8.324C49.72 8.636 49.664 8.944 49.552 9.248C49.448 9.544 49.288 9.812 49.072 10.052C48.864 10.284 48.6 10.472 48.28 10.616C47.96 10.76 47.584 10.832 47.152 10.832H45.448ZM45.448 9.32H46.996C47.348 9.32 47.624 9.224 47.824 9.032C48.032 8.84 48.136 8.592 48.136 8.288V8.144C48.136 7.84 48.032 7.592 47.824 7.4C47.624 7.208 47.348 7.112 46.996 7.112H45.448V9.32ZM50.9957 8.048H53.5157V8.912H53.7317C53.8437 8.584 54.0317 8.332 54.2957 8.156C54.5677 7.972 54.8917 7.88 55.2677 7.88C55.8597 7.88 56.3357 8.068 56.6957 8.444C57.0557 8.812 57.2357 9.376 57.2357 10.136V10.4L55.6757 10.544V10.376C55.6757 10.048 55.5917 9.788 55.4237 9.596C55.2557 9.396 55.0037 9.296 54.6677 9.296C54.3317 9.296 54.0677 9.412 53.8757 9.644C53.6837 9.876 53.5877 10.208 53.5877 10.64V12.56H54.9557V14H50.8517V12.56H52.0757V9.488H50.9957V8.048ZM59.9633 11.516C59.9713 11.692 60.0113 11.856 60.0833 12.008C60.1633 12.152 60.2673 12.28 60.3953 12.392C60.5313 12.496 60.6833 12.58 60.8513 12.644C61.0273 12.7 61.2113 12.728 61.4033 12.728C61.7793 12.728 62.0673 12.664 62.2673 12.536C62.4673 12.4 62.6113 12.24 62.6993 12.056L63.9953 12.776C63.9233 12.928 63.8233 13.088 63.6953 13.256C63.5673 13.416 63.3993 13.564 63.1913 13.7C62.9913 13.836 62.7433 13.948 62.4473 14.036C62.1593 14.124 61.8193 14.168 61.4273 14.168C60.9793 14.168 60.5713 14.096 60.2033 13.952C59.8353 13.808 59.5153 13.6 59.2433 13.328C58.9793 13.056 58.7713 12.724 58.6193 12.332C58.4753 11.94 58.4033 11.496 58.4033 11V10.928C58.4033 10.472 58.4793 10.056 58.6313 9.68C58.7913 9.304 59.0073 8.984 59.2793 8.72C59.5513 8.456 59.8673 8.252 60.2273 8.108C60.5953 7.956 60.9873 7.88 61.4033 7.88C61.9153 7.88 62.3553 7.972 62.7233 8.156C63.0913 8.332 63.3953 8.56 63.6353 8.84C63.8753 9.112 64.0513 9.416 64.1633 9.752C64.2753 10.08 64.3313 10.4 64.3313 10.712V11.516H59.9633ZM61.3913 9.248C61.0073 9.248 60.6953 9.348 60.4553 9.548C60.2153 9.74 60.0593 9.964 59.9873 10.22H62.7953C62.7473 9.94 62.5953 9.708 62.3393 9.524C62.0913 9.34 61.7753 9.248 61.3913 9.248ZM61.4273 5.528H63.0353L62.0273 7.16H60.8033L61.4273 5.528ZM71.787 11.816C71.651 12.52 71.327 13.088 70.815 13.52C70.311 13.952 69.635 14.168 68.787 14.168C68.347 14.168 67.935 14.1 67.551 13.964C67.175 13.828 66.847 13.632 66.567 13.376C66.287 13.12 66.067 12.804 65.907 12.428C65.747 12.052 65.667 11.624 65.667 11.144V11C65.667 10.52 65.747 10.088 65.907 9.704C66.067 9.32 66.287 8.992 66.567 8.72C66.855 8.448 67.187 8.24 67.563 8.096C67.947 7.952 68.355 7.88 68.787 7.88C69.619 7.88 70.291 8.096 70.803 8.528C71.323 8.96 71.651 9.528 71.787 10.232L70.299 10.616C70.251 10.264 70.099 9.96 69.843 9.704C69.587 9.448 69.227 9.32 68.763 9.32C68.547 9.32 68.343 9.36 68.151 9.44C67.959 9.52 67.791 9.636 67.647 9.788C67.503 9.932 67.387 10.112 67.299 10.328C67.219 10.536 67.179 10.772 67.179 11.036V11.108C67.179 11.372 67.219 11.608 67.299 11.816C67.387 12.016 67.503 12.184 67.647 12.32C67.791 12.456 67.959 12.56 68.151 12.632C68.343 12.696 68.547 12.728 68.763 12.728C69.227 12.728 69.579 12.612 69.819 12.38C70.067 12.148 70.227 11.836 70.299 11.444L71.787 11.816ZM74.6586 11.516C74.6666 11.692 74.7066 11.856 74.7786 12.008C74.8586 12.152 74.9626 12.28 75.0906 12.392C75.2266 12.496 75.3786 12.58 75.5466 12.644C75.7226 12.7 75.9066 12.728 76.0986 12.728C76.4746 12.728 76.7626 12.664 76.9626 12.536C77.1626 12.4 77.3066 12.24 77.3946 12.056L78.6906 12.776C78.6186 12.928 78.5186 13.088 78.3906 13.256C78.2626 13.416 78.0946 13.564 77.8866 13.7C77.6866 13.836 77.4386 13.948 77.1426 14.036C76.8546 14.124 76.5146 14.168 76.1226 14.168C75.6746 14.168 75.2666 14.096 74.8986 13.952C74.5306 13.808 74.2106 13.6 73.9386 13.328C73.6746 13.056 73.4666 12.724 73.3146 12.332C73.1706 11.94 73.0986 11.496 73.0986 11V10.928C73.0986 10.472 73.1746 10.056 73.3266 9.68C73.4866 9.304 73.7026 8.984 73.9746 8.72C74.2466 8.456 74.5626 8.252 74.9226 8.108C75.2906 7.956 75.6826 7.88 76.0986 7.88C76.6106 7.88 77.0506 7.972 77.4186 8.156C77.7866 8.332 78.0906 8.56 78.3306 8.84C78.5706 9.112 78.7466 9.416 78.8586 9.752C78.9706 10.08 79.0266 10.4 79.0266 10.712V11.516H74.6586ZM76.0866 9.248C75.7026 9.248 75.3906 9.348 75.1506 9.548C74.9106 9.74 74.7546 9.964 74.6826 10.22H77.4906C77.4426 9.94 77.2906 9.708 77.0346 9.524C76.7866 9.34 76.4706 9.248 76.0866 9.248ZM76.1226 5.528H77.7306L76.7226 7.16H75.4986L76.1226 5.528ZM84.9463 13.136H84.7303C84.6663 13.272 84.5863 13.404 84.4903 13.532C84.4023 13.652 84.2823 13.76 84.1303 13.856C83.9863 13.952 83.8103 14.028 83.6023 14.084C83.4023 14.14 83.1583 14.168 82.8703 14.168C82.5023 14.168 82.1583 14.104 81.8383 13.976C81.5263 13.84 81.2503 13.644 81.0103 13.388C80.7783 13.124 80.5943 12.804 80.4583 12.428C80.3303 12.052 80.2663 11.62 80.2663 11.132V10.916C80.2663 10.436 80.3343 10.008 80.4703 9.632C80.6143 9.256 80.8063 8.94 81.0463 8.684C81.2943 8.42 81.5783 8.22 81.8983 8.084C82.2263 7.948 82.5703 7.88 82.9303 7.88C83.4103 7.88 83.7903 7.972 84.0703 8.156C84.3503 8.332 84.5703 8.584 84.7303 8.912H84.9463V5.6H86.4583V14H84.9463V13.136ZM83.3623 12.728C83.8343 12.728 84.2143 12.58 84.5023 12.284C84.7983 11.98 84.9463 11.584 84.9463 11.096V10.952C84.9463 10.464 84.7983 10.072 84.5023 9.776C84.2143 9.472 83.8343 9.32 83.3623 9.32C82.8903 9.32 82.5063 9.468 82.2103 9.764C81.9223 10.052 81.7783 10.448 81.7783 10.952V11.096C81.7783 11.6 81.9223 12 82.2103 12.296C82.5063 12.584 82.8903 12.728 83.3623 12.728ZM89.3539 11.516C89.3619 11.692 89.4019 11.856 89.4739 12.008C89.5539 12.152 89.6579 12.28 89.7859 12.392C89.9219 12.496 90.0739 12.58 90.2419 12.644C90.4179 12.7 90.6019 12.728 90.7939 12.728C91.1699 12.728 91.4579 12.664 91.6579 12.536C91.8579 12.4 92.0019 12.24 92.0899 12.056L93.3859 12.776C93.3139 12.928 93.2139 13.088 93.0859 13.256C92.9579 13.416 92.7899 13.564 92.5819 13.7C92.3819 13.836 92.1339 13.948 91.8379 14.036C91.5499 14.124 91.2099 14.168 90.8179 14.168C90.3699 14.168 89.9619 14.096 89.5939 13.952C89.2259 13.808 88.9059 13.6 88.6339 13.328C88.3699 13.056 88.1619 12.724 88.0099 12.332C87.8659 11.94 87.7939 11.496 87.7939 11V10.928C87.7939 10.472 87.8699 10.056 88.0219 9.68C88.1819 9.304 88.3979 8.984 88.6699 8.72C88.9419 8.456 89.2579 8.252 89.6179 8.108C89.9859 7.956 90.3779 7.88 90.7939 7.88C91.3059 7.88 91.7459 7.972 92.1139 8.156C92.4819 8.332 92.7859 8.56 93.0259 8.84C93.2659 9.112 93.4419 9.416 93.5539 9.752C93.6659 10.08 93.7219 10.4 93.7219 10.712V11.516H89.3539ZM90.7819 9.248C90.3979 9.248 90.0859 9.348 89.8459 9.548C89.6059 9.74 89.4499 9.964 89.3779 10.22H92.1859C92.1379 9.94 91.9859 9.708 91.7299 9.524C91.4819 9.34 91.1659 9.248 90.7819 9.248ZM96.8816 14H95.3696V8.048H96.8816V8.936H97.0976C97.2336 8.6 97.4536 8.34 97.7576 8.156C98.0616 7.972 98.4176 7.88 98.8256 7.88C99.1136 7.88 99.3816 7.928 99.6296 8.024C99.8856 8.112 100.11 8.252 100.302 8.444C100.494 8.636 100.642 8.88 100.746 9.176C100.858 9.472 100.914 9.824 100.914 10.232V14H99.4016V10.616C99.4016 10.192 99.2976 9.86 99.0896 9.62C98.8896 9.372 98.5976 9.248 98.2136 9.248C97.7656 9.248 97.4296 9.4 97.2056 9.704C96.9896 10 96.8816 10.4 96.8816 10.904V14ZM102.549 8.048H104.313V5.6H105.825V8.048H107.973V9.488H105.825V12.2C105.825 12.44 105.933 12.56 106.149 12.56H107.757V14H105.237C104.965 14 104.741 13.912 104.565 13.736C104.397 13.56 104.313 13.336 104.313 13.064V9.488H102.549V8.048ZM111.397 11.516C111.405 11.692 111.445 11.856 111.517 12.008C111.597 12.152 111.701 12.28 111.829 12.392C111.965 12.496 112.117 12.58 112.285 12.644C112.461 12.7 112.645 12.728 112.837 12.728C113.213 12.728 113.501 12.664 113.701 12.536C113.901 12.4 114.045 12.24 114.133 12.056L115.429 12.776C115.357 12.928 115.257 13.088 115.129 13.256C115.001 13.416 114.833 13.564 114.625 13.7C114.425 13.836 114.177 13.948 113.881 14.036C113.593 14.124 113.253 14.168 112.861 14.168C112.413 14.168 112.005 14.096 111.637 13.952C111.269 13.808 110.949 13.6 110.677 13.328C110.413 13.056 110.205 12.724 110.053 12.332C109.909 11.94 109.837 11.496 109.837 11V10.928C109.837 10.472 109.913 10.056 110.065 9.68C110.225 9.304 110.441 8.984 110.713 8.72C110.985 8.456 111.301 8.252 111.661 8.108C112.029 7.956 112.421 7.88 112.837 7.88C113.349 7.88 113.789 7.972 114.157 8.156C114.525 8.332 114.829 8.56 115.069 8.84C115.309 9.112 115.485 9.416 115.597 9.752C115.709 10.08 115.765 10.4 115.765 10.712V11.516H111.397ZM112.825 9.248C112.441 9.248 112.129 9.348 111.889 9.548C111.649 9.74 111.493 9.964 111.421 10.22H114.229C114.181 9.94 114.029 9.708 113.773 9.524C113.525 9.34 113.209 9.248 112.825 9.248Z" fill="black"/>
</svg>
