<svg width="102" height="18" viewBox="0 0 102 18" fill="none" xmlns="http://www.w3.org/2000/svg">
<path d="M5.112 8.168C5.112 7.832 4.98 7.54 4.716 7.292C4.46 7.044 4.096 6.92 3.624 6.92C3.224 6.92 2.908 7.004 2.676 7.172C2.444 7.332 2.328 7.552 2.328 7.832C2.328 7.976 2.356 8.108 2.412 8.228C2.468 8.34 2.564 8.444 2.7 8.54C2.844 8.628 3.028 8.708 3.252 8.78C3.484 8.852 3.776 8.92 4.128 8.984C5.008 9.144 5.68 9.412 6.144 9.788C6.608 10.164 6.84 10.72 6.84 11.456V11.6C6.84 11.992 6.768 12.348 6.624 12.668C6.488 12.98 6.288 13.248 6.024 13.472C5.76 13.696 5.44 13.868 5.064 13.988C4.688 14.108 4.264 14.168 3.792 14.168C3.24 14.168 2.752 14.092 2.328 13.94C1.912 13.78 1.564 13.564 1.284 13.292C1.004 13.012 0.792 12.688 0.648 12.32C0.504 11.944 0.432 11.536 0.432 11.096V10.736H2.016V11.024C2.016 11.528 2.16 11.932 2.448 12.236C2.744 12.532 3.2 12.68 3.816 12.68C4.296 12.68 4.652 12.576 4.884 12.368C5.116 12.16 5.232 11.912 5.232 11.624C5.232 11.488 5.208 11.36 5.16 11.24C5.112 11.112 5.028 11 4.908 10.904C4.788 10.8 4.624 10.708 4.416 10.628C4.208 10.548 3.944 10.48 3.624 10.424C3.2 10.352 2.812 10.26 2.46 10.148C2.108 10.028 1.8 9.872 1.536 9.68C1.28 9.488 1.08 9.248 0.936 8.96C0.792 8.672 0.72 8.32 0.72 7.904V7.832C0.72 7.488 0.788 7.172 0.924 6.884C1.068 6.588 1.264 6.332 1.512 6.116C1.768 5.9 2.072 5.732 2.424 5.612C2.784 5.492 3.184 5.432 3.624 5.432C4.12 5.432 4.56 5.504 4.944 5.648C5.328 5.784 5.648 5.972 5.904 6.212C6.168 6.452 6.364 6.728 6.492 7.04C6.628 7.352 6.696 7.68 6.696 8.024V8.456H5.112V8.168ZM12.3157 8.048H13.8277V14H12.3157V13.136H12.0997C11.8357 13.824 11.2677 14.168 10.3957 14.168C10.0997 14.168 9.82366 14.12 9.56766 14.024C9.31166 13.928 9.08766 13.78 8.89566 13.58C8.70366 13.38 8.55166 13.132 8.43966 12.836C8.33566 12.532 8.28366 12.176 8.28366 11.768V8.048H9.79566V11.456C9.79566 11.88 9.89566 12.212 10.0957 12.452C10.2957 12.684 10.5957 12.8 10.9957 12.8C11.4517 12.8 11.7837 12.656 11.9917 12.368C12.2077 12.072 12.3157 11.672 12.3157 11.168V8.048ZM15.7393 12.56H17.7553V9.488H15.8833V8.048H19.2673V12.56H20.9953V14H15.7393V12.56ZM19.6393 6.284C19.6393 6.444 19.6073 6.596 19.5433 6.74C19.4873 6.876 19.4073 6.996 19.3033 7.1C19.1993 7.196 19.0753 7.276 18.9313 7.34C18.7953 7.396 18.6513 7.424 18.4993 7.424C18.3393 7.424 18.1913 7.396 18.0553 7.34C17.9193 7.276 17.7993 7.196 17.6953 7.1C17.5913 6.996 17.5073 6.876 17.4433 6.74C17.3873 6.596 17.3593 6.444 17.3593 6.284C17.3593 6.124 17.3873 5.976 17.4433 5.84C17.5073 5.696 17.5913 5.576 17.6953 5.48C17.7993 5.376 17.9193 5.296 18.0553 5.24C18.1913 5.176 18.3393 5.144 18.4993 5.144C18.6513 5.144 18.7953 5.176 18.9313 5.24C19.0753 5.296 19.1993 5.376 19.3033 5.48C19.4073 5.576 19.4873 5.696 19.5433 5.84C19.6073 5.976 19.6393 6.124 19.6393 6.284ZM22.559 8.048H24.191L25.595 13.28H25.811L27.215 8.048H28.847L27.143 14H24.263L22.559 8.048ZM34.1786 13.136C34.0186 13.512 33.7946 13.78 33.5066 13.94C33.2186 14.092 32.8826 14.168 32.4986 14.168C32.1386 14.168 31.7986 14.1 31.4786 13.964C31.1666 13.828 30.8906 13.628 30.6506 13.364C30.4106 13.1 30.2186 12.78 30.0746 12.404C29.9386 12.028 29.8706 11.6 29.8706 11.12V10.928C29.8706 10.456 29.9386 10.032 30.0746 9.656C30.2106 9.28 30.3946 8.96 30.6266 8.696C30.8586 8.432 31.1266 8.232 31.4306 8.096C31.7426 7.952 32.0746 7.88 32.4266 7.88C32.8506 7.88 33.1906 7.952 33.4466 8.096C33.7106 8.24 33.9186 8.464 34.0706 8.768H34.2866V8.048H35.7986V12.2C35.7986 12.44 35.9066 12.56 36.1226 12.56H36.3506V14H35.3186C35.0466 14 34.8226 13.92 34.6466 13.76C34.4786 13.6 34.3946 13.392 34.3946 13.136H34.1786ZM32.8346 12.728C33.2746 12.728 33.6266 12.584 33.8906 12.296C34.1546 12 34.2866 11.6 34.2866 11.096V10.952C34.2866 10.448 34.1546 10.052 33.8906 9.764C33.6266 9.468 33.2746 9.32 32.8346 9.32C32.3946 9.32 32.0426 9.468 31.7786 9.764C31.5146 10.052 31.3826 10.448 31.3826 10.952V11.096C31.3826 11.6 31.5146 12 31.7786 12.296C32.0426 12.584 32.3946 12.728 32.8346 12.728ZM39.1863 14H37.6743V8.048H39.1863V8.936H39.4023C39.5383 8.6 39.7583 8.34 40.0623 8.156C40.3663 7.972 40.7223 7.88 41.1303 7.88C41.4183 7.88 41.6863 7.928 41.9343 8.024C42.1903 8.112 42.4143 8.252 42.6063 8.444C42.7983 8.636 42.9463 8.88 43.0503 9.176C43.1623 9.472 43.2183 9.824 43.2183 10.232V14H41.7063V10.616C41.7063 10.192 41.6023 9.86 41.3943 9.62C41.1943 9.372 40.9023 9.248 40.5183 9.248C40.0703 9.248 39.7343 9.4 39.5103 9.704C39.2943 10 39.1863 10.4 39.1863 10.904V14ZM44.8539 8.048H46.6179V5.6H48.1299V8.048H50.2779V9.488H48.1299V12.2C48.1299 12.44 48.2379 12.56 48.4539 12.56H50.0619V14H47.5419C47.2699 14 47.0459 13.912 46.8699 13.736C46.7019 13.56 46.6179 13.336 46.6179 13.064V9.488H44.8539V8.048ZM53.7016 11.516C53.7096 11.692 53.7496 11.856 53.8216 12.008C53.9016 12.152 54.0056 12.28 54.1336 12.392C54.2696 12.496 54.4216 12.58 54.5896 12.644C54.7656 12.7 54.9496 12.728 55.1416 12.728C55.5176 12.728 55.8056 12.664 56.0056 12.536C56.2056 12.4 56.3496 12.24 56.4376 12.056L57.7336 12.776C57.6616 12.928 57.5616 13.088 57.4336 13.256C57.3056 13.416 57.1376 13.564 56.9296 13.7C56.7296 13.836 56.4816 13.948 56.1856 14.036C55.8976 14.124 55.5576 14.168 55.1656 14.168C54.7176 14.168 54.3096 14.096 53.9416 13.952C53.5736 13.808 53.2536 13.6 52.9816 13.328C52.7176 13.056 52.5096 12.724 52.3576 12.332C52.2136 11.94 52.1416 11.496 52.1416 11V10.928C52.1416 10.472 52.2176 10.056 52.3696 9.68C52.5296 9.304 52.7456 8.984 53.0176 8.72C53.2896 8.456 53.6056 8.252 53.9656 8.108C54.3336 7.956 54.7256 7.88 55.1416 7.88C55.6536 7.88 56.0936 7.972 56.4616 8.156C56.8296 8.332 57.1336 8.56 57.3736 8.84C57.6136 9.112 57.7896 9.416 57.9016 9.752C58.0136 10.08 58.0696 10.4 58.0696 10.712V11.516H53.7016ZM55.1296 9.248C54.7456 9.248 54.4336 9.348 54.1936 9.548C53.9536 9.74 53.7976 9.964 53.7256 10.22H56.5336C56.4856 9.94 56.3336 9.708 56.0776 9.524C55.8296 9.34 55.5136 9.248 55.1296 9.248Z" fill="black"/>
<path d="M101.707 9.70711C102.098 9.31658 102.098 8.68342 101.707 8.29289L95.3431 1.92893C94.9526 1.53841 94.3195 1.53841 93.9289 1.92893C93.5384 2.31946 93.5384 2.95262 93.9289 3.34315L99.5858 9L93.9289 14.6569C93.5384 15.0474 93.5384 15.6805 93.9289 16.0711C94.3195 16.4616 94.9526 16.4616 95.3431 16.0711L101.707 9.70711ZM67 8C66.4477 8 66 8.44772 66 9C66 9.55228 66.4477 10 67 10V8ZM101 8L67 8V10L101 10V8Z" fill="black"/>
</svg>
